<svg width="164" height="37" viewBox="0 0 164 37" fill="none" xmlns="http://www.w3.org/2000/svg">
<g filter="url(#filter0_d_200_868)">
<path d="M27.0366 8.68414H42.5387V12.2725H27.0366V13.4386V14.9072V16.743V19.6688V25.2838V28.8593H39.6257H42.7833H27.0366V8.68414Z" fill="#65C279"/>
<path d="M89.9821 8.68414H105.484V12.2726H89.9821V13.4386V14.9072V16.743V19.6688V25.2838V28.8593H102.571H105.729H89.9821V8.68414Z" fill="#65C279"/>
<path d="M141.062 14.4311C141.722 14.8441 142.39 15.2185 143.065 15.5541C143.749 15.8811 144.455 16.1607 145.185 16.3931C145.915 16.6168 146.68 16.7889 147.48 16.9094C148.287 17.0299 149.145 17.0901 150.054 17.0901C151.148 17.0901 152.08 17.0127 152.849 16.8578C153.618 16.6943 154.243 16.4748 154.724 16.1995C155.213 15.9155 155.566 15.5799 155.784 15.1926C156.009 14.8054 156.122 14.3837 156.122 13.9277C156.122 13.1962 155.846 12.6197 155.295 12.198C154.743 11.7677 153.893 11.5526 152.744 11.5526C152.239 11.5526 151.707 11.5913 151.148 11.6688C150.589 11.7376 150.022 11.8151 149.448 11.9011C148.881 11.9872 148.318 12.0689 147.759 12.1464C147.208 12.2152 146.688 12.2496 146.198 12.2496C145.383 12.2496 144.599 12.1335 143.846 11.9011C143.1 11.6688 142.436 11.3203 141.854 10.8556C141.279 10.3909 140.821 9.81003 140.48 9.113C140.138 8.41597 139.967 7.60278 139.967 6.6734C139.967 6.12266 140.033 5.57623 140.165 5.0341C140.305 4.49196 140.522 3.97564 140.817 3.48514C141.12 2.98604 141.509 2.52565 141.982 2.10399C142.456 1.67373 143.026 1.3037 143.694 0.993911C144.37 0.684121 145.146 0.443173 146.024 0.271067C146.909 0.0903556 147.914 0 149.04 0C149.856 0 150.675 0.0516317 151.498 0.154895C152.321 0.249553 153.121 0.387238 153.897 0.567949C154.681 0.74866 155.434 0.968095 156.157 1.22625C156.879 1.47581 157.55 1.75548 158.171 2.06527L156.553 5.3697C156.04 5.12015 155.489 4.89211 154.899 4.68558C154.309 4.47045 153.691 4.28544 153.047 4.13054C152.402 3.97564 151.735 3.85517 151.044 3.76912C150.36 3.67446 149.661 3.62713 148.947 3.62713C147.93 3.62713 147.091 3.70888 146.431 3.87238C145.779 4.03588 145.259 4.24671 144.871 4.50487C144.482 4.75442 144.211 5.0384 144.055 5.35679C143.908 5.66658 143.834 5.97637 143.834 6.28617C143.834 6.88854 144.079 7.38334 144.568 7.77058C145.057 8.14921 145.802 8.33853 146.804 8.33853C147.208 8.33853 147.67 8.30841 148.19 8.24817C148.718 8.17933 149.269 8.10618 149.844 8.02874C150.426 7.95129 151.016 7.88245 151.614 7.82221C152.22 7.75337 152.806 7.71895 153.373 7.71895C154.444 7.71895 155.392 7.85233 156.215 8.11909C157.046 8.38586 157.741 8.76879 158.3 9.2679C158.859 9.7584 159.282 10.3565 159.569 11.0621C159.856 11.7591 160 12.5422 160 13.4113C160 14.5731 159.755 15.61 159.266 16.5222C158.785 17.4257 158.094 18.1916 157.193 18.8198C156.3 19.4394 155.221 19.9126 153.955 20.2396C152.69 20.558 151.28 20.7172 149.727 20.7172C148.702 20.7172 147.701 20.6441 146.722 20.4978C145.744 20.3601 144.805 20.1622 143.904 19.904C143.011 19.6373 142.157 19.3232 141.342 18.9618C140.534 18.5917 139.785 18.1873 139.094 17.7484L141.062 14.4311Z" fill="black"/>
<path d="M131.779 0.258057H135.495V20.4332H131.779V0.258057Z" fill="black"/>
<path d="M110.419 0.258057H119.678C121.076 0.258057 122.287 0.421557 123.312 0.748558C124.337 1.06695 125.187 1.53164 125.863 2.14262C126.538 2.75359 127.039 3.49795 127.365 4.37569C127.699 5.25343 127.866 6.24734 127.866 7.35742C127.866 8.10608 127.784 8.82032 127.621 9.50014C127.458 10.1714 127.206 10.7909 126.864 11.3589C126.53 11.9268 126.107 12.4345 125.595 12.882C125.082 13.3209 124.481 13.6866 123.79 13.9792L127.749 20.4332H123.23L119.806 14.702H119.701L114.111 14.6891V20.4332H110.419V0.258057ZM119.771 11.1524C120.47 11.1524 121.08 11.062 121.6 10.8813C122.128 10.7006 122.567 10.4467 122.916 10.1197C123.273 9.79272 123.537 9.39688 123.708 8.93219C123.887 8.4589 123.976 7.93398 123.976 7.35742C123.976 6.23013 123.626 5.36099 122.928 4.75002C122.229 4.13044 121.177 3.82065 119.771 3.82065H114.111V11.1524H119.771Z" fill="black"/>
<path d="M68.6759 0.258057H78.4011C79.5891 0.258057 80.6218 0.400044 81.4992 0.684019C82.3844 0.959388 83.1182 1.34232 83.7005 1.83283C84.2829 2.32333 84.7138 2.90849 84.9934 3.5883C85.2806 4.25952 85.4243 4.98666 85.4243 5.76975C85.4243 7.05193 85.0594 8.17493 84.3295 9.13872C85.1681 9.68946 85.7931 10.4037 86.2046 11.2814C86.6162 12.1592 86.8219 13.1574 86.8219 14.2761C86.8219 15.2141 86.6783 16.0617 86.391 16.8189C86.1115 17.5762 85.6805 18.2259 85.0982 18.768C84.5236 19.3016 83.7937 19.7146 82.9085 20.0072C82.0311 20.2912 80.9945 20.4332 79.7988 20.4332H68.6759V0.258057ZM79.8221 8.00282C80.1404 8.00282 80.451 8.01573 80.7538 8.04154C81.2741 7.4908 81.5342 6.86262 81.5342 6.15698C81.5342 5.42553 81.2741 4.86189 80.7538 4.46604C80.2414 4.0616 79.4882 3.85937 78.4943 3.85937H72.368V8.00282H79.8221ZM79.892 16.8706C80.8858 16.8706 81.639 16.6339 82.1515 16.1606C82.6717 15.6873 82.9318 15.0204 82.9318 14.1599C82.9318 13.2994 82.6717 12.6282 82.1515 12.1463C81.639 11.6644 80.8858 11.4234 79.892 11.4234H72.368V16.8706H79.892Z" fill="black"/>
<path d="M46.8493 0.258057H56.1086C57.5063 0.258057 58.7176 0.421557 59.7425 0.748558C60.7675 1.06695 61.6177 1.53164 62.2932 2.14262C62.9687 2.75359 63.4696 3.49795 63.7957 4.37569C64.1296 5.25343 64.2965 6.24734 64.2965 7.35742C64.2965 8.10608 64.215 8.82032 64.0519 9.50014C63.8889 10.1714 63.6365 10.7909 63.2949 11.3589C62.961 11.9268 62.5378 12.4345 62.0253 12.882C61.5129 13.3209 60.9111 13.6866 60.22 13.9792L64.18 20.4332H59.661L56.2368 14.702H56.1319L50.5414 14.6891V20.4332H46.8493V0.258057ZM56.2018 11.1524C56.9006 11.1524 57.5102 11.062 58.0304 10.8813C58.5584 10.7006 58.9971 10.4467 59.3465 10.1197C59.7037 9.79272 59.9677 9.39688 60.1385 8.93219C60.3171 8.4589 60.4064 7.93398 60.4064 7.35742C60.4064 6.23013 60.057 5.36099 59.3582 4.75002C58.6593 4.13044 57.6072 3.82065 56.2018 3.82065H50.5414V11.1524H56.2018Z" fill="black"/>
<path d="M27.0029 0.258057H42.505V3.84646H27.0029V5.01248V6.48112V8.31691V11.2427V16.8577H30.695H42.7496V20.4332H27.0029V0.258057Z" fill="black"/>
<path d="M89.9484 0.258057H105.451V3.84646H89.9484V5.01248V6.48112V8.31691V11.2427V16.8577H93.6405H105.695V20.4332H89.9484V0.258057Z" fill="black"/>
<path d="M4 10.2231C4 8.78603 4.24459 7.44791 4.73376 6.20875C5.22294 4.96098 5.92952 3.88102 6.85352 2.96886C7.78528 2.04809 8.91892 1.32525 10.2544 0.800324C11.5977 0.275401 13.1157 0.0129395 14.8084 0.0129395C16.2915 0.0129395 17.6503 0.180743 18.8849 0.516349C20.1272 0.84335 21.2803 1.34676 22.344 2.02658L20.6436 5.12448C20.3252 4.89214 19.9564 4.68561 19.5371 4.5049C19.1256 4.32419 18.683 4.1736 18.2094 4.05312C17.7435 3.92404 17.2582 3.82508 16.7535 3.75624C16.2565 3.6874 15.7635 3.65298 15.2743 3.65298C14.0941 3.65298 13.042 3.81648 12.118 4.14348C11.194 4.46188 10.4136 4.91365 9.77692 5.49881C9.14798 6.07537 8.66657 6.76809 8.33269 7.57699C8.00657 8.37728 7.84351 9.25933 7.84351 10.2231C7.84351 11.2213 8.01434 12.1378 8.35598 12.9725C8.69763 13.8072 9.19069 14.5301 9.83515 15.141C10.4874 15.7434 11.2794 16.2167 12.2111 16.5609C13.1507 16.8965 14.2105 17.0643 15.3908 17.0643C15.9265 17.0643 16.4584 17.0213 16.9864 16.9352C17.5144 16.8492 18.023 16.733 18.5122 16.5867C19.0091 16.4318 19.4866 16.2511 19.9448 16.0446C20.4029 15.8295 20.8299 15.5971 21.2259 15.3476L22.9264 18.4455C21.9325 19.1511 20.7833 19.7062 19.4789 20.1106C18.1744 20.5064 16.7884 20.7044 15.3209 20.7044C13.4496 20.7044 11.8074 20.4376 10.3942 19.9041C8.98104 19.3619 7.80081 18.6219 6.85352 17.6839C5.90623 16.7373 5.19188 15.6272 4.71047 14.3537C4.23682 13.0715 4 11.6946 4 10.2231Z" fill="black"/>
</g>
<defs>
<filter id="filter0_d_200_868" x="0" y="0" width="164" height="36.8593" filterUnits="userSpaceOnUse" color-interpolation-filters="sRGB">
<feFlood flood-opacity="0" result="BackgroundImageFix"/>
<feColorMatrix in="SourceAlpha" type="matrix" values="0 0 0 0 0 0 0 0 0 0 0 0 0 0 0 0 0 0 127 0" result="hardAlpha"/>
<feOffset dy="4"/>
<feGaussianBlur stdDeviation="2"/>
<feComposite in2="hardAlpha" operator="out"/>
<feColorMatrix type="matrix" values="0 0 0 0 0 0 0 0 0 0 0 0 0 0 0 0 0 0 0.25 0"/>
<feBlend mode="normal" in2="BackgroundImageFix" result="effect1_dropShadow_200_868"/>
<feBlend mode="normal" in="SourceGraphic" in2="effect1_dropShadow_200_868" result="shape"/>
</filter>
</defs>
</svg>
