<svg width="164" height="37" viewBox="0 0 164 37" fill="none" xmlns="http://www.w3.org/2000/svg">
<g filter="url(#filter0_d_144_1725)">
<path d="M27.0365 8.68408H42.5387V12.2725H27.0365V13.4385V14.9071V16.7429V19.6687V25.2837V28.8592H39.6256H42.7833H27.0365V8.68408Z" fill="#65C279"/>
<path d="M89.9822 8.68408H105.484V12.2725H89.9822V13.4385V14.9071V16.7429V19.6687V25.2837V28.8592H102.571H105.729H89.9822V8.68408Z" fill="#65C279"/>
<path d="M141.062 14.4311C141.722 14.8441 142.39 15.2185 143.065 15.5541C143.749 15.8811 144.455 16.1607 145.185 16.3931C145.915 16.6168 146.68 16.7889 147.48 16.9094C148.287 17.0299 149.145 17.0901 150.054 17.0901C151.148 17.0901 152.08 17.0127 152.849 16.8578C153.618 16.6943 154.243 16.4748 154.724 16.1995C155.213 15.9155 155.567 15.5799 155.784 15.1926C156.009 14.8054 156.122 14.3837 156.122 13.9277C156.122 13.1962 155.846 12.6197 155.295 12.198C154.743 11.7677 153.893 11.5526 152.744 11.5526C152.239 11.5526 151.707 11.5913 151.148 11.6688C150.589 11.7376 150.023 11.8151 149.448 11.9011C148.881 11.9872 148.318 12.0689 147.759 12.1464C147.208 12.2152 146.688 12.2496 146.198 12.2496C145.383 12.2496 144.599 12.1335 143.846 11.9011C143.1 11.6688 142.436 11.3203 141.854 10.8556C141.28 10.3909 140.821 9.81003 140.48 9.113C140.138 8.41597 139.967 7.60278 139.967 6.6734C139.967 6.12266 140.033 5.57623 140.165 5.0341C140.305 4.49196 140.522 3.97564 140.818 3.48514C141.12 2.98604 141.509 2.52565 141.982 2.10399C142.456 1.67373 143.027 1.3037 143.694 0.993911C144.37 0.684121 145.146 0.443173 146.024 0.271067C146.909 0.0903556 147.914 0 149.04 0C149.856 0 150.675 0.0516317 151.498 0.154895C152.321 0.249553 153.121 0.387238 153.897 0.567949C154.681 0.74866 155.435 0.968095 156.157 1.22625C156.879 1.47581 157.55 1.75548 158.172 2.06527L156.553 5.3697C156.04 5.12015 155.489 4.89211 154.899 4.68558C154.309 4.47045 153.691 4.28544 153.047 4.13054C152.402 3.97564 151.735 3.85517 151.044 3.76912C150.36 3.67446 149.661 3.62713 148.947 3.62713C147.93 3.62713 147.091 3.70888 146.431 3.87238C145.779 4.03588 145.259 4.24671 144.871 4.50487C144.482 4.75442 144.211 5.0384 144.055 5.35679C143.908 5.66658 143.834 5.97637 143.834 6.28617C143.834 6.88854 144.079 7.38334 144.568 7.77058C145.057 8.14921 145.802 8.33853 146.804 8.33853C147.208 8.33853 147.67 8.30841 148.19 8.24817C148.718 8.17933 149.269 8.10618 149.844 8.02874C150.426 7.95129 151.016 7.88245 151.614 7.82221C152.22 7.75337 152.806 7.71895 153.373 7.71895C154.445 7.71895 155.392 7.85233 156.215 8.11909C157.046 8.38586 157.741 8.76879 158.3 9.2679C158.859 9.7584 159.282 10.3565 159.569 11.0621C159.856 11.7591 160 12.5422 160 13.4113C160 14.5731 159.756 15.61 159.266 16.5222C158.785 17.4257 158.094 18.1916 157.193 18.8198C156.3 19.4394 155.221 19.9126 153.955 20.2396C152.69 20.558 151.28 20.7172 149.727 20.7172C148.703 20.7172 147.701 20.6441 146.723 20.4978C145.744 20.3601 144.805 20.1622 143.904 19.904C143.011 19.6373 142.157 19.3232 141.342 18.9618C140.534 18.5917 139.785 18.1873 139.094 17.7484L141.062 14.4311Z" fill="white"/>
<path d="M131.779 0.257812H135.495V20.4329H131.779V0.257812Z" fill="white"/>
<path d="M110.419 0.257812H119.678C121.076 0.257812 122.287 0.421313 123.312 0.748314C124.337 1.06671 125.187 1.5314 125.863 2.14237C126.538 2.75335 127.039 3.4977 127.365 4.37544C127.699 5.25318 127.866 6.2471 127.866 7.35718C127.866 8.10584 127.784 8.82008 127.621 9.4999C127.458 10.1711 127.206 10.7907 126.864 11.3586C126.53 11.9266 126.107 12.4343 125.595 12.8818C125.082 13.3206 124.481 13.6864 123.789 13.979L127.749 20.4329H123.23L119.806 14.7018H119.701L114.111 14.6889V20.4329H110.419V0.257812ZM119.771 11.1521C120.47 11.1521 121.08 11.0618 121.6 10.881C122.128 10.7003 122.567 10.4465 122.916 10.1195C123.273 9.79248 123.537 9.39663 123.708 8.93195C123.887 8.45866 123.976 7.93373 123.976 7.35718C123.976 6.22989 123.626 5.36075 122.928 4.74977C122.229 4.13019 121.177 3.8204 119.771 3.8204H114.111V11.1521H119.771Z" fill="white"/>
<path d="M68.6759 0.257812H78.4012C79.5892 0.257812 80.6219 0.3998 81.4993 0.683774C82.3844 0.959144 83.1182 1.34208 83.7005 1.83258C84.2829 2.32308 84.7138 2.90824 84.9934 3.58806C85.2807 4.25927 85.4243 4.98642 85.4243 5.7695C85.4243 7.05169 85.0594 8.17468 84.3295 9.13847C85.1681 9.68921 85.7931 10.4035 86.2047 11.2812C86.6162 12.1589 86.8219 13.1571 86.8219 14.2758C86.8219 15.2138 86.6783 16.0614 86.391 16.8187C86.1115 17.576 85.6805 18.2257 85.0982 18.7678C84.5236 19.3013 83.7937 19.7144 82.9086 20.007C82.0311 20.2909 80.9946 20.4329 79.7988 20.4329H68.6759V0.257812ZM79.8221 8.00258C80.1404 8.00258 80.451 8.01548 80.7539 8.0413C81.2741 7.49056 81.5342 6.86237 81.5342 6.15674C81.5342 5.42529 81.2741 4.86164 80.7539 4.4658C80.2414 4.06135 79.4882 3.85913 78.4943 3.85913H72.368V8.00258H79.8221ZM79.892 16.8703C80.8859 16.8703 81.639 16.6337 82.1515 16.1604C82.6717 15.6871 82.9318 15.0202 82.9318 14.1597C82.9318 13.2991 82.6717 12.6279 82.1515 12.146C81.639 11.6641 80.8859 11.4232 79.892 11.4232H72.368V16.8703H79.892Z" fill="white"/>
<path d="M46.8492 0.257812H56.1086C57.5063 0.257812 58.7175 0.421313 59.7425 0.748314C60.7674 1.06671 61.6177 1.5314 62.2932 2.14237C62.9687 2.75335 63.4695 3.4977 63.7956 4.37544C64.1295 5.25318 64.2965 6.2471 64.2965 7.35718C64.2965 8.10584 64.2149 8.82008 64.0519 9.4999C63.8888 10.1711 63.6365 10.7907 63.2948 11.3586C62.9609 11.9266 62.5378 12.4343 62.0253 12.8818C61.5128 13.3206 60.9111 13.6864 60.22 13.979L64.18 20.4329H59.661L56.2367 14.7018H56.1319L50.5413 14.6889V20.4329H46.8492V0.257812ZM56.2018 11.1521C56.9006 11.1521 57.5101 11.0618 58.0304 10.881C58.5584 10.7003 58.9971 10.4465 59.3465 10.1195C59.7037 9.79248 59.9677 9.39663 60.1385 8.93195C60.3171 8.45866 60.4064 7.93373 60.4064 7.35718C60.4064 6.22989 60.057 5.36075 59.3581 4.74977C58.6593 4.13019 57.6072 3.8204 56.2018 3.8204H50.5413V11.1521H56.2018Z" fill="white"/>
<path d="M27.0029 0.257812H42.5051V3.84622H27.0029V5.01224V6.48087V8.31667V11.2425V16.8574H30.695H42.7497V20.4329H27.0029V0.257812Z" fill="white"/>
<path d="M89.9485 0.257812H105.451V3.84622H89.9485V5.01224V6.48087V8.31667V11.2425V16.8574H93.6406H105.695V20.4329H89.9485V0.257812Z" fill="white"/>
<path d="M4 10.2234C4 8.78628 4.24459 7.44816 4.73376 6.20899C5.22294 4.96123 5.92952 3.88126 6.85352 2.9691C7.78528 2.04834 8.91892 1.32549 10.2544 0.800568C11.5977 0.275645 13.1157 0.0131836 14.8084 0.0131836C16.2915 0.0131836 17.6503 0.180987 18.8849 0.516593C20.1272 0.843594 21.2803 1.347 22.344 2.02682L20.6436 5.12473C20.3252 4.89238 19.9564 4.68586 19.5371 4.50515C19.1256 4.32443 18.683 4.17384 18.2094 4.05337C17.7435 3.92429 17.2582 3.82533 16.7535 3.75649C16.2565 3.68764 15.7635 3.65322 15.2743 3.65322C14.0941 3.65322 13.042 3.81672 12.118 4.14372C11.194 4.46212 10.4136 4.9139 9.77692 5.49906C9.14798 6.07561 8.66657 6.76834 8.33269 7.57724C8.00657 8.37753 7.84351 9.25957 7.84351 10.2234C7.84351 11.2216 8.01434 12.138 8.35598 12.9728C8.69763 13.8075 9.19069 14.5303 9.83515 15.1413C10.4874 15.7437 11.2794 16.2169 12.2111 16.5612C13.1507 16.8968 14.2105 17.0646 15.3908 17.0646C15.9265 17.0646 16.4584 17.0215 16.9864 16.9355C17.5144 16.8494 18.023 16.7333 18.5122 16.587C19.0091 16.4321 19.4866 16.2514 19.9448 16.0448C20.4029 15.8297 20.8299 15.5974 21.2259 15.3478L22.9264 18.4457C21.9325 19.1514 20.7833 19.7064 19.4789 20.1108C18.1744 20.5067 16.7884 20.7046 15.3209 20.7046C13.4496 20.7046 11.8074 20.4378 10.3942 19.9043C8.98104 19.3622 7.80081 18.6221 6.85352 17.6842C5.90623 16.7376 5.19188 15.6275 4.71047 14.3539C4.23682 13.0717 4 11.6949 4 10.2234Z" fill="white"/>
</g>
<defs>
<filter id="filter0_d_144_1725" x="0" y="0" width="164" height="36.8594" filterUnits="userSpaceOnUse" color-interpolation-filters="sRGB">
<feFlood flood-opacity="0" result="BackgroundImageFix"/>
<feColorMatrix in="SourceAlpha" type="matrix" values="0 0 0 0 0 0 0 0 0 0 0 0 0 0 0 0 0 0 127 0" result="hardAlpha"/>
<feOffset dy="4"/>
<feGaussianBlur stdDeviation="2"/>
<feComposite in2="hardAlpha" operator="out"/>
<feColorMatrix type="matrix" values="0 0 0 0 0 0 0 0 0 0 0 0 0 0 0 0 0 0 0.25 0"/>
<feBlend mode="normal" in2="BackgroundImageFix" result="effect1_dropShadow_144_1725"/>
<feBlend mode="normal" in="SourceGraphic" in2="effect1_dropShadow_144_1725" result="shape"/>
</filter>
</defs>
</svg>
