<svg width="302" height="178" viewBox="0 0 302 178" fill="none" xmlns="http://www.w3.org/2000/svg">
<g filter="url(#filter0_d_370_300)">
<path d="M47.415 131.652H76.6306V138.414H47.415V140.612V143.38V146.84V152.354V162.936V169.674H71.1406H77.0916H47.415V131.652Z" fill="#60976A"/>
<path d="M166.043 131.652H195.259V138.414H166.043V140.612V143.38V146.84V152.354V162.936V169.674H189.769H195.72H166.043V131.652Z" fill="#60976A"/>
<path d="M262.309 142.482C263.553 143.261 264.811 143.966 266.084 144.599C267.372 145.215 268.704 145.742 270.079 146.18C271.455 146.602 272.896 146.926 274.404 147.153C275.925 147.38 277.542 147.494 279.255 147.494C281.318 147.494 283.074 147.348 284.523 147.056C285.971 146.748 287.149 146.334 288.057 145.815C288.978 145.28 289.644 144.647 290.054 143.918C290.478 143.188 290.691 142.393 290.691 141.534C290.691 140.155 290.171 139.069 289.132 138.274C288.093 137.463 286.491 137.058 284.325 137.058C283.374 137.058 282.371 137.131 281.318 137.277C280.264 137.406 279.196 137.552 278.113 137.714C277.045 137.877 275.984 138.031 274.93 138.177C273.891 138.306 272.911 138.371 271.989 138.371C270.453 138.371 268.975 138.152 267.555 137.714C266.15 137.277 264.899 136.62 263.802 135.744C262.719 134.868 261.855 133.774 261.212 132.46C260.568 131.146 260.246 129.614 260.246 127.862C260.246 126.824 260.37 125.794 260.619 124.773C260.882 123.751 261.292 122.778 261.848 121.854C262.419 120.913 263.15 120.045 264.043 119.251C264.936 118.44 266.011 117.742 267.27 117.159C268.543 116.575 270.006 116.121 271.66 115.796C273.328 115.456 275.223 115.285 277.345 115.285C278.881 115.285 280.425 115.383 281.976 115.577C283.528 115.756 285.035 116.015 286.498 116.356C287.976 116.696 289.396 117.11 290.756 117.596C292.117 118.067 293.383 118.594 294.554 119.178L291.503 125.405C290.537 124.935 289.498 124.505 288.386 124.116C287.274 123.71 286.11 123.362 284.896 123.07C283.681 122.778 282.423 122.551 281.12 122.389C279.833 122.21 278.516 122.121 277.169 122.121C275.252 122.121 273.672 122.275 272.428 122.583C271.199 122.891 270.218 123.289 269.487 123.775C268.755 124.246 268.243 124.781 267.95 125.381C267.672 125.965 267.533 126.549 267.533 127.132C267.533 128.268 267.994 129.2 268.916 129.93C269.838 130.644 271.243 131 273.13 131C273.891 131 274.762 130.944 275.743 130.83C276.738 130.7 277.777 130.562 278.859 130.416C279.957 130.271 281.069 130.141 282.196 130.027C283.337 129.898 284.442 129.833 285.51 129.833C287.53 129.833 289.315 130.084 290.866 130.587C292.432 131.09 293.742 131.811 294.795 132.752C295.849 133.676 296.646 134.803 297.188 136.133C297.729 137.447 298 138.923 298 140.561C298 142.75 297.539 144.704 296.617 146.423C295.71 148.126 294.407 149.57 292.71 150.753C291.027 151.921 288.993 152.813 286.608 153.429C284.223 154.029 281.567 154.329 278.64 154.329C276.708 154.329 274.821 154.192 272.977 153.916C271.133 153.656 269.362 153.283 267.665 152.797C265.982 152.294 264.372 151.702 262.836 151.021C261.314 150.324 259.902 149.561 258.599 148.734L262.309 142.482Z" fill="black"/>
<path d="M244.815 115.772H251.817V153.794H244.815V115.772Z" fill="black"/>
<path d="M204.558 115.772H222.009C224.643 115.772 226.926 116.08 228.857 116.696C230.789 117.296 232.391 118.172 233.664 119.324C234.937 120.475 235.881 121.878 236.496 123.532C237.125 125.186 237.44 127.059 237.44 129.151C237.44 130.562 237.286 131.908 236.979 133.19C236.671 134.455 236.196 135.622 235.552 136.693C234.923 137.763 234.125 138.72 233.159 139.563C232.194 140.39 231.06 141.08 229.757 141.631L237.22 153.794H228.704L222.25 142.993H222.053L211.517 142.969V153.794H204.558V115.772ZM222.184 136.303C223.501 136.303 224.65 136.133 225.631 135.793C226.626 135.452 227.452 134.974 228.111 134.357C228.784 133.741 229.282 132.995 229.604 132.119C229.94 131.227 230.108 130.238 230.108 129.151C230.108 127.027 229.45 125.389 228.133 124.238C226.816 123.07 224.833 122.486 222.184 122.486H211.517V136.303H222.184Z" fill="black"/>
<path d="M125.889 115.772H144.217C146.456 115.772 148.403 116.039 150.056 116.575C151.724 117.094 153.107 117.815 154.205 118.74C155.302 119.664 156.114 120.767 156.641 122.048C157.183 123.313 157.453 124.683 157.453 126.159C157.453 128.576 156.766 130.692 155.39 132.509C156.97 133.546 158.148 134.893 158.924 136.547C159.7 138.201 160.087 140.082 160.087 142.19C160.087 143.958 159.817 145.556 159.275 146.983C158.748 148.41 157.936 149.634 156.839 150.656C155.756 151.662 154.38 152.44 152.712 152.991C151.059 153.527 149.105 153.794 146.851 153.794H125.889V115.772ZM146.895 130.368C147.495 130.368 148.081 130.392 148.651 130.441C149.632 129.403 150.122 128.219 150.122 126.889C150.122 125.511 149.632 124.448 148.651 123.702C147.686 122.94 146.266 122.559 144.393 122.559H132.847V130.368H146.895ZM147.027 147.08C148.9 147.08 150.32 146.634 151.285 145.742C152.266 144.85 152.756 143.593 152.756 141.972C152.756 140.35 152.266 139.085 151.285 138.177C150.32 137.268 148.9 136.814 147.027 136.814H132.847V147.08H147.027Z" fill="black"/>
<path d="M84.7545 115.772H102.205C104.839 115.772 107.122 116.08 109.053 116.696C110.985 117.296 112.587 118.172 113.86 119.324C115.134 120.475 116.077 121.878 116.692 123.532C117.321 125.186 117.636 127.059 117.636 129.151C117.636 130.562 117.482 131.908 117.175 133.19C116.868 134.455 116.392 135.622 115.748 136.693C115.119 137.763 114.321 138.72 113.356 139.563C112.39 140.39 111.256 141.08 109.953 141.631L117.416 153.794H108.9L102.446 142.993H102.249L91.7127 142.969V153.794H84.7545V115.772ZM102.38 136.303C103.697 136.303 104.846 136.133 105.827 135.793C106.822 135.452 107.649 134.974 108.307 134.357C108.98 133.741 109.478 132.995 109.8 132.119C110.136 131.227 110.304 130.238 110.304 129.151C110.304 127.027 109.646 125.389 108.329 124.238C107.012 123.07 105.029 122.486 102.38 122.486H91.7127V136.303H102.38Z" fill="black"/>
<path d="M47.3516 115.772H76.5672V122.535H47.3516V124.732V127.5V130.96V136.474V147.056H54.3098H77.0281V153.794H47.3516V115.772Z" fill="black"/>
<path d="M165.98 115.772H195.195V122.535H165.98V124.732V127.5V130.96V136.474V147.056H172.938H195.656V153.794H165.98V115.772Z" fill="black"/>
<path d="M4 134.552C4 131.844 4.46095 129.322 5.38286 126.986C6.30476 124.635 7.63641 122.599 9.37778 120.88C11.1338 119.145 13.2703 117.783 15.7872 116.794C18.3188 115.804 21.1796 115.31 24.3697 115.31C27.1647 115.31 29.7256 115.626 32.0523 116.258C34.3936 116.875 36.5667 117.823 38.5715 119.105L35.3667 124.943C34.7668 124.505 34.0717 124.116 33.2815 123.775C32.5059 123.435 31.6718 123.151 30.7792 122.924C29.9012 122.681 28.9866 122.494 28.0354 122.364C27.0989 122.235 26.1696 122.17 25.2477 122.17C23.0235 122.17 21.0406 122.478 19.2992 123.094C17.5579 123.694 16.0872 124.546 14.8873 125.648C13.702 126.735 12.7947 128.041 12.1655 129.565C11.5508 131.073 11.2435 132.736 11.2435 134.552C11.2435 136.433 11.5655 138.16 12.2094 139.733C12.8532 141.307 13.7824 142.669 14.997 143.82C16.2262 144.956 17.7188 145.847 19.4748 146.496C21.2455 147.129 23.243 147.445 25.4672 147.445C26.4769 147.445 27.4793 147.364 28.4744 147.202C29.4695 147.039 30.428 146.821 31.3499 146.545C32.2864 146.253 33.1864 145.912 34.0497 145.523C34.9131 145.118 35.7179 144.68 36.4643 144.21L39.669 150.048C37.7959 151.378 35.6301 152.424 33.1717 153.186C30.7133 153.932 28.1012 154.305 25.3355 154.305C21.8089 154.305 18.7139 153.802 16.0506 152.797C13.3873 151.775 11.1631 150.38 9.37778 148.613C7.59251 146.829 6.24623 144.737 5.33896 142.336C4.44632 139.92 4 137.325 4 134.552Z" fill="black"/>
</g>
<path d="M152.635 31.0688L160.561 32.6631C160.623 32.6755 160.675 32.7158 160.702 32.772L164.268 40.1317C164.34 40.2817 164.208 40.4496 164.045 40.4144L156.668 38.8205C156.612 38.8084 156.563 38.7727 156.535 38.7226L152.421 31.3624C152.338 31.2133 152.468 31.0351 152.635 31.0688Z" fill="#60976A"/>
<path fill-rule="evenodd" clip-rule="evenodd" d="M144.866 23.2914C144.797 23.2757 144.741 23.2246 144.72 23.157L142.688 16.7731C142.675 16.7297 142.676 16.6829 142.693 16.6404L149.066 0.127993C149.128 -0.0334576 149.352 -0.0449266 149.431 0.109317L153.388 7.88736C153.459 8.02713 153.656 8.03442 153.737 7.90029L157.657 1.42844C157.744 1.28445 157.959 1.30605 158.016 1.46451L163.726 17.3768C163.751 17.446 163.812 17.496 163.885 17.507L179.267 19.8255C179.317 19.8329 179.361 19.8583 179.393 19.8967L190.633 33.6518C190.66 33.6847 190.697 33.7082 190.738 33.7189L216.948 40.4921C217.079 40.526 217.139 40.6779 217.067 40.7926L206.583 57.3919C206.525 57.4838 206.405 57.5131 206.311 57.4598C205.166 56.817 202.232 55.5608 200.813 57.5572C199.416 59.5225 196.228 63.3051 193.578 66.4502L193.577 66.4503L193.576 66.4518L193.575 66.4531C191.723 68.6513 190.133 70.5377 189.601 71.2736L203.941 49.4398C204.016 49.3258 203.957 49.1718 203.825 49.1368L176.123 41.7693C176.084 41.759 176.05 41.7373 176.023 41.7071L163.81 27.6332C163.782 27.6011 163.744 27.5787 163.703 27.5693L144.866 23.2914ZM84.5205 66.5511C84.3793 66.5281 84.3072 66.3687 84.3831 66.2475L99.6743 41.8404C99.7085 41.7858 99.7143 41.7181 99.6899 41.6585L97.0758 35.2683C97.0561 35.2203 97.0559 35.1665 97.0752 35.1183L107.011 10.2787C107.076 10.1158 107.305 10.1098 107.378 10.269L111.651 19.5037C111.718 19.6475 111.917 19.6605 112.002 19.5267L116.232 12.8402C116.316 12.7067 116.515 12.7192 116.582 12.8624L125.029 30.9127C125.057 30.9732 125.114 31.0155 125.18 31.0256L142.596 33.6916C142.642 33.6986 142.684 33.7217 142.715 33.7567L156.344 49.1637C156.37 49.1926 156.403 49.2135 156.441 49.2239L186.232 57.483C186.364 57.5195 186.421 57.6742 186.345 57.7875L177.256 71.2736C175.766 73.4603 170.577 77.8933 161.751 78.1318C153.315 78.3598 135.311 78.2428 126.271 78.1452C126.045 78.1428 125.996 78.4587 126.209 78.5343L134.095 81.3326C134.211 81.374 134.263 81.5105 134.202 81.6187L123.134 101.426C123.064 101.551 122.89 101.564 122.802 101.452L97.0933 68.6514C97.0623 68.6119 97.0176 68.5855 96.968 68.5774L84.5205 66.5511ZM132.481 39.7522C132.386 39.6059 132.511 39.4162 132.683 39.4459L140.785 40.8427C140.844 40.8529 140.895 40.8891 140.925 40.9414L144.544 47.3439C144.627 47.4918 144.5 47.6699 144.333 47.639L136.788 46.2417C136.734 46.2318 136.687 46.2002 136.657 46.1543L132.481 39.7522ZM177.899 26.0324C177.87 25.9801 177.818 25.9439 177.759 25.9337L169.658 24.5369C169.485 24.5072 169.361 24.6969 169.456 24.8432L173.631 31.2453C173.661 31.2912 173.709 31.3228 173.762 31.3327L181.308 32.73C181.475 32.7609 181.602 32.5828 181.518 32.4349L177.899 26.0324Z" fill="#60976A"/>
<path d="M106.73 21.8483L110.541 28.9788C110.57 29.034 110.572 29.0997 110.546 29.1565L107.135 36.5889C107.065 36.7404 106.852 36.7454 106.775 36.5972L103.313 29.8905C103.287 29.8395 103.283 29.7796 103.304 29.7261L106.367 21.8699C106.429 21.7108 106.649 21.6976 106.73 21.8483Z" fill="white"/>
<path d="M149.757 6.24437L152.548 11.4667C152.577 11.5218 152.579 11.5875 152.553 11.6444L150.051 17.0946C149.982 17.2461 149.768 17.2511 149.692 17.103L147.156 12.1916C147.13 12.1405 147.127 12.0807 147.148 12.0272L149.394 6.26599C149.456 6.10683 149.676 6.0937 149.757 6.24437Z" fill="white"/>
<defs>
<filter id="filter0_d_370_300" x="0" y="115.285" width="302" height="62.3886" filterUnits="userSpaceOnUse" color-interpolation-filters="sRGB">
<feFlood flood-opacity="0" result="BackgroundImageFix"/>
<feColorMatrix in="SourceAlpha" type="matrix" values="0 0 0 0 0 0 0 0 0 0 0 0 0 0 0 0 0 0 127 0" result="hardAlpha"/>
<feOffset dy="4"/>
<feGaussianBlur stdDeviation="2"/>
<feComposite in2="hardAlpha" operator="out"/>
<feColorMatrix type="matrix" values="0 0 0 0 0 0 0 0 0 0 0 0 0 0 0 0 0 0 0.25 0"/>
<feBlend mode="normal" in2="BackgroundImageFix" result="effect1_dropShadow_370_300"/>
<feBlend mode="normal" in="SourceGraphic" in2="effect1_dropShadow_370_300" result="shape"/>
</filter>
</defs>
</svg>
