<svg width="134" height="102" viewBox="0 0 134 102" fill="none" xmlns="http://www.w3.org/2000/svg">
<path d="M68.6351 31.0688L76.5614 32.6631C76.6227 32.6755 76.6747 32.7158 76.7019 32.772L80.2675 40.1317C80.3402 40.2817 80.2082 40.4496 80.0453 40.4144L72.6678 38.8205C72.6117 38.8084 72.5635 38.7727 72.5355 38.7226L68.4211 31.3624C68.3377 31.2133 68.4676 31.0351 68.6351 31.0688Z" fill="#60976A"/>
<path fill-rule="evenodd" clip-rule="evenodd" d="M60.8661 23.2914C60.7969 23.2757 60.7413 23.2246 60.7198 23.157L58.6885 16.7731C58.6747 16.7297 58.6761 16.6829 58.6925 16.6404L65.0657 0.127993C65.128 -0.0334576 65.3521 -0.0449266 65.4306 0.109317L69.3878 7.88736C69.4589 8.02713 69.6559 8.03442 69.7371 7.90029L73.657 1.42844C73.7442 1.28445 73.9595 1.30605 74.0163 1.46451L79.7263 17.3768C79.7511 17.446 79.812 17.496 79.8847 17.507L95.2675 19.8255C95.3165 19.8329 95.3611 19.8583 95.3925 19.8967L106.633 33.6518C106.66 33.6847 106.697 33.7082 106.738 33.7189L132.948 40.4921C133.079 40.526 133.139 40.6779 133.067 40.7926L122.583 57.3919C122.525 57.4838 122.405 57.5131 122.311 57.4598C121.166 56.817 118.232 55.5608 116.813 57.5572C115.416 59.5225 112.228 63.3051 109.578 66.4502L109.577 66.4503L109.576 66.4518L109.575 66.4531C107.723 68.6513 106.133 70.5377 105.601 71.2736L119.941 49.4398C120.016 49.3258 119.957 49.1718 119.825 49.1368L92.1231 41.7693C92.0844 41.759 92.0497 41.7373 92.0234 41.7071L79.8095 27.6332C79.7817 27.6011 79.7443 27.5787 79.7028 27.5693L60.8661 23.2914ZM0.520464 66.5511C0.379305 66.5281 0.307185 66.3687 0.383115 66.2475L15.6743 41.8404C15.7085 41.7858 15.7143 41.7181 15.6899 41.6585L13.0758 35.2683C13.0561 35.2203 13.0559 35.1665 13.0752 35.1183L23.011 10.2787C23.0762 10.1158 23.3045 10.1098 23.3782 10.269L27.651 19.5037C27.7175 19.6475 27.9168 19.6605 28.0015 19.5267L32.2317 12.8402C32.3162 12.7067 32.5149 12.7192 32.5819 12.8624L41.0291 30.9127C41.0574 30.9732 41.114 31.0155 41.18 31.0256L58.5956 33.6916C58.6418 33.6986 58.6841 33.7217 58.7151 33.7567L72.3443 49.1637C72.37 49.1926 72.4034 49.2135 72.4407 49.2239L102.232 57.483C102.364 57.5195 102.421 57.6742 102.345 57.7875L93.2564 71.2736C91.7655 73.4603 86.5771 77.8933 77.7509 78.1318C69.3154 78.3598 51.3106 78.2428 42.2708 78.1452C42.0448 78.1428 41.9956 78.4587 42.2086 78.5343L50.0948 81.3326C50.2115 81.374 50.2629 81.5105 50.2025 81.6187L39.1337 101.426C39.064 101.551 38.8898 101.564 38.8017 101.452L13.0933 68.6514C13.0623 68.6119 13.0176 68.5855 12.968 68.5774L0.520464 66.5511ZM48.4813 39.7522C48.3859 39.6059 48.5107 39.4162 48.6828 39.4459L56.7846 40.8427C56.8437 40.8529 56.8952 40.8891 56.9247 40.9414L60.5435 47.3439C60.6271 47.4918 60.5 47.6699 60.333 47.639L52.7877 46.2417C52.7339 46.2318 52.6865 46.2002 52.6566 46.1543L48.4813 39.7522ZM93.8994 26.0324C93.8699 25.9801 93.8184 25.9439 93.7593 25.9337L85.6575 24.5369C85.4854 24.5072 85.3606 24.6969 85.456 24.8432L89.6313 31.2453C89.6612 31.2912 89.7086 31.3228 89.7624 31.3327L97.3077 32.73C97.4747 32.7609 97.6018 32.5828 97.5182 32.4349L93.8994 26.0324Z" fill="#60976A"/>
<path d="M22.7298 21.8483L26.5408 28.9788C26.5703 29.034 26.5723 29.0997 26.5462 29.1565L23.1347 36.5889C23.0651 36.7404 22.8517 36.7454 22.7752 36.5972L19.3129 29.8905C19.2866 29.8395 19.2834 29.7796 19.3043 29.7261L22.3671 21.8699C22.4291 21.7108 22.6493 21.6976 22.7298 21.8483Z" fill="white"/>
<path d="M65.7566 6.24437L68.5477 11.4667C68.5772 11.5218 68.5791 11.5875 68.5531 11.6444L66.0514 17.0946C65.9818 17.2461 65.7684 17.2511 65.6919 17.103L63.1564 12.1916C63.1301 12.1405 63.127 12.0807 63.1478 12.0272L65.3939 6.26599C65.4559 6.10683 65.6761 6.0937 65.7566 6.24437Z" fill="white"/>
</svg>
