<svg width="30" height="25" viewBox="0 0 30 25" fill="none" xmlns="http://www.w3.org/2000/svg">
<path d="M3 24.5V12.5H0V9.5H6C5.175 9.5 4.46875 9.20625 3.88125 8.61875C3.29375 8.03125 3 7.325 3 6.5V0.5H12V6.5C12 7.325 11.7063 8.03125 11.1188 8.61875C10.5313 9.20625 9.825 9.5 9 9.5H21V5C21 4.575 20.8563 4.21875 20.5688 3.93125C20.2813 3.64375 19.925 3.5 19.5 3.5C19.075 3.5 18.7188 3.64375 18.4313 3.93125C18.1438 4.21875 18 4.575 18 5H15C15 3.75 15.4375 2.6875 16.3125 1.8125C17.1875 0.9375 18.25 0.5 19.5 0.5C20.75 0.5 21.8125 0.9375 22.6875 1.8125C23.5625 2.6875 24 3.75 24 5V9.5H30V12.5H27V24.5H3ZM6 6.5H9V3.5H6V6.5ZM6 21.5H13.5V12.5H6V21.5ZM16.5 21.5H24V12.5H16.5V21.5Z" fill="black"/>
</svg>
