<svg width="28" height="29" viewBox="0 0 28 29" fill="none" xmlns="http://www.w3.org/2000/svg">
<path d="M7 10.3C6.23 10.3 5.57083 10.0258 5.0225 9.4775C4.47417 8.92917 4.2 8.27 4.2 7.5C4.2 6.73 4.47417 6.07083 5.0225 5.5225C5.57083 4.97417 6.23 4.7 7 4.7C7.77 4.7 8.42917 4.97417 8.9775 5.5225C9.52583 6.07083 9.8 6.73 9.8 7.5C9.8 8.27 9.52583 8.92917 8.9775 9.4775C8.42917 10.0258 7.77 10.3 7 10.3ZM4.2 28.5C3.80333 28.5 3.47083 28.3658 3.2025 28.0975C2.93417 27.8292 2.8 27.4967 2.8 27.1C2.03 27.1 1.37083 26.8258 0.8225 26.2775C0.274167 25.7292 0 25.07 0 24.3V15.9H4.2V14.85C4.2 13.9633 4.50333 13.2167 5.11 12.61C5.71667 12.0033 6.46333 11.7 7.35 11.7C7.81667 11.7 8.24833 11.7933 8.645 11.98C9.04167 12.1667 9.40333 12.4233 9.73 12.75L11.69 14.92C11.8767 15.1067 12.0575 15.2817 12.2325 15.445C12.4075 15.6083 12.6 15.76 12.81 15.9H22.4V4.49C22.4 4.16333 22.2833 3.88333 22.05 3.65C21.8167 3.41667 21.5367 3.3 21.21 3.3C21.07 3.3 20.9358 3.32917 20.8075 3.3875C20.6792 3.44583 20.5567 3.53333 20.44 3.65L18.69 5.4C18.8067 5.79667 18.83 6.1875 18.76 6.5725C18.69 6.9575 18.55 7.31333 18.34 7.64L14.49 3.72C14.8167 3.51 15.1667 3.37583 15.54 3.3175C15.9133 3.25917 16.2867 3.3 16.66 3.44L18.41 1.69C18.7833 1.31667 19.2092 1.025 19.6875 0.815C20.1658 0.605 20.6733 0.5 21.21 0.5C22.33 0.5 23.275 0.885 24.045 1.655C24.815 2.425 25.2 3.37 25.2 4.49V15.9H28V24.3C28 25.07 27.7258 25.7292 27.1775 26.2775C26.6292 26.8258 25.97 27.1 25.2 27.1C25.2 27.4967 25.0658 27.8292 24.7975 28.0975C24.5292 28.3658 24.1967 28.5 23.8 28.5H4.2ZM2.8 24.3H25.2V18.7H2.8V24.3Z" fill="black"/>
</svg>
