<svg width="36" height="29" viewBox="0 0 36 29" fill="none" xmlns="http://www.w3.org/2000/svg">
<path d="M5.75 29H4L2.8625 24.8571H0.5V14.4482C0.5 13.3089 0.842708 12.3423 1.52812 11.5482C2.21354 10.7542 3.0375 10.3571 4 10.3571V4.14286C4 3.00357 4.34271 2.02827 5.02812 1.21696C5.71354 0.405655 6.5375 0 7.5 0H28.5C29.4625 0 30.2865 0.405655 30.9719 1.21696C31.6573 2.02827 32 3.00357 32 4.14286V10.3571C32.9625 10.3571 33.7865 10.7628 34.4719 11.5741C35.1573 12.3854 35.5 13.3607 35.5 14.5V24.8571H33.1375L32 29H30.25L29.1125 24.8571H6.8875L5.75 29ZM19.75 10.3571H28.5V4.14286H19.75V10.3571ZM7.5 10.3571H16.25V4.14286H7.5V10.3571ZM4 20.7143H32V14.5H4V20.7143Z" fill="black"/>
</svg>
