<svg width="36" height="29" viewBox="0 0 36 29" fill="none" xmlns="http://www.w3.org/2000/svg">
<path d="M6.86364 29C6.41288 29 6.03504 28.8456 5.73011 28.5368C5.42519 28.228 5.27273 27.8454 5.27273 27.3889V25.7778C3.94697 25.7778 2.82008 25.3079 1.89205 24.3681C0.964015 23.4282 0.5 22.287 0.5 20.9444V12.8889C0.5 11.5463 0.964015 10.4051 1.89205 9.46528C2.82008 8.52546 3.94697 8.05556 5.27273 8.05556V4.83333C5.27273 3.49074 5.73674 2.34954 6.66477 1.40972C7.5928 0.469907 8.7197 0 10.0455 0H25.9545C27.2803 0 28.4072 0.469907 29.3352 1.40972C30.2633 2.34954 30.7273 3.49074 30.7273 4.83333V8.05556C32.053 8.05556 33.1799 8.52546 34.108 9.46528C35.036 10.4051 35.5 11.5463 35.5 12.8889V20.9444C35.5 22.287 35.036 23.4282 34.108 24.3681C33.1799 25.3079 32.053 25.7778 30.7273 25.7778V27.3889C30.7273 27.8454 30.5748 28.228 30.2699 28.5368C29.965 28.8456 29.5871 29 29.1364 29C28.6856 29 28.3078 28.8456 28.0028 28.5368C27.6979 28.228 27.5455 27.8454 27.5455 27.3889V25.7778H8.45455V27.3889C8.45455 27.8454 8.30208 28.228 7.99716 28.5368C7.69223 28.8456 7.31439 29 6.86364 29ZM5.27273 22.5556H30.7273C31.178 22.5556 31.5559 22.4012 31.8608 22.0924C32.1657 21.7836 32.3182 21.4009 32.3182 20.9444V12.8889C32.3182 12.4324 32.1657 12.0498 31.8608 11.741C31.5559 11.4322 31.178 11.2778 30.7273 11.2778C30.2765 11.2778 29.8987 11.4322 29.5938 11.741C29.2888 12.0498 29.1364 12.4324 29.1364 12.8889V19.3333H6.86364V12.8889C6.86364 12.4324 6.71117 12.0498 6.40625 11.741C6.10133 11.4322 5.72348 11.2778 5.27273 11.2778C4.82197 11.2778 4.44413 11.4322 4.1392 11.741C3.83428 12.0498 3.68182 12.4324 3.68182 12.8889V20.9444C3.68182 21.4009 3.83428 21.7836 4.1392 22.0924C4.44413 22.4012 4.82197 22.5556 5.27273 22.5556ZM10.0455 16.1111H25.9545V12.8889C25.9545 12.1639 26.1004 11.506 26.392 10.9153C26.6837 10.3245 27.0682 9.80093 27.5455 9.34444V4.83333C27.5455 4.37685 27.393 3.99421 27.0881 3.68542C26.7831 3.37662 26.4053 3.22222 25.9545 3.22222H10.0455C9.5947 3.22222 9.21686 3.37662 8.91193 3.68542C8.60701 3.99421 8.45455 4.37685 8.45455 4.83333V9.34444C8.93182 9.80093 9.31629 10.3245 9.60795 10.9153C9.89962 11.506 10.0455 12.1639 10.0455 12.8889V16.1111Z" fill="black"/>
</svg>
