<svg width="28" height="29" viewBox="0 0 28 29" fill="none" xmlns="http://www.w3.org/2000/svg">
<path d="M0 28.5V25.3889H3.11111V3.61111C3.11111 2.75556 3.41574 2.02315 4.025 1.41389C4.63426 0.80463 5.36667 0.5 6.22222 0.5H21.7778C22.6333 0.5 23.3657 0.80463 23.975 1.41389C24.5843 2.02315 24.8889 2.75556 24.8889 3.61111V25.3889H28V28.5H0ZM21.7778 25.3889V3.61111H6.22222V25.3889H21.7778ZM17.1111 16.0556C17.5519 16.0556 17.9213 15.9065 18.2194 15.6083C18.5176 15.3102 18.6667 14.9407 18.6667 14.5C18.6667 14.0593 18.5176 13.6898 18.2194 13.3917C17.9213 13.0935 17.5519 12.9444 17.1111 12.9444C16.6704 12.9444 16.3009 13.0935 16.0028 13.3917C15.7046 13.6898 15.5556 14.0593 15.5556 14.5C15.5556 14.9407 15.7046 15.3102 16.0028 15.6083C16.3009 15.9065 16.6704 16.0556 17.1111 16.0556Z" fill="black"/>
</svg>
